<svg xmlns="http://www.w3.org/2000/svg" viewBox="0 0 64 64">
  <rect width="64" height="64" rx="14" fill="#050d1a"/>
  <rect x="8" y="8" width="34" height="34" rx="7" fill="#ffffff" transform="rotate(-8 25 25)"/>
  <g transform="rotate(-8 25 25)" fill="#0d1e36">
    <circle cx="15" cy="15" r="2.6"/>
    <circle cx="35" cy="15" r="2.6"/>
    <circle cx="25" cy="25" r="2.6"/>
    <circle cx="15" cy="35" r="2.6"/>
    <circle cx="35" cy="35" r="2.6"/>
  </g>
  <rect x="30" y="26" width="26" height="34" rx="5" fill="#a8e6cf" transform="rotate(9 43 43)"/>
  <path d="M43 34 l4 9 l9 1 l-7 6 l2 9 l-8 -5 l-8 5 l2 -9 l-7 -6 l9 -1 z"
    transform="rotate(9 43 43)" fill="#0a1628" opacity="0.85"/>
</svg>
